<svg id="visual" viewBox="0 0 900 600" width="900" height="600" xmlns="http://www.w3.org/2000/svg" xmlns:xlink="http://www.w3.org/1999/xlink" version="1.1"><rect x="0" y="0" width="900" height="600" fill="#ffffff"></rect><path d="M0 538L129 513L257 528L386 524L514 527L643 549L771 537L900 513L900 601L771 601L643 601L514 601L386 601L257 601L129 601L0 601Z" fill="#867bff"></path><path d="M0 556L129 528L257 522L386 527L514 551L643 547L771 554L900 531L900 601L771 601L643 601L514 601L386 601L257 601L129 601L0 601Z" fill="#bc7ded"></path><path d="M0 550L129 549L257 561L386 538L514 545L643 556L771 534L900 539L900 601L771 601L643 601L514 601L386 601L257 601L129 601L0 601Z" fill="#dc85db"></path><path d="M0 546L129 557L257 563L386 569L514 558L643 552L771 561L900 567L900 601L771 601L643 601L514 601L386 601L257 601L129 601L0 601Z" fill="#ef92cd"></path><path d="M0 572L129 560L257 560L386 567L514 570L643 573L771 563L900 573L900 601L771 601L643 601L514 601L386 601L257 601L129 601L0 601Z" fill="#f8a3c4"></path><path d="M0 576L129 571L257 580L386 568L514 583L643 581L771 579L900 581L900 601L771 601L643 601L514 601L386 601L257 601L129 601L0 601Z" fill="#fab6c3"></path><path d="M0 580L129 589L257 587L386 580L514 585L643 589L771 587L900 585L900 601L771 601L643 601L514 601L386 601L257 601L129 601L0 601Z" fill="#f7caca"></path></svg>